<?xml version="1.0" encoding="UTF-8"?> <svg xmlns="http://www.w3.org/2000/svg" width="267" height="249" viewBox="0 0 267 249" fill="none"> <g filter="url(#filter0_f_130_5)"> <path d="M217 124.5C217 83.3548 177.794 92.7507 133.5 50C83.5197 65.8008 50 83.3548 50 124.5C50 165.645 87.3842 199 133.5 199C179.616 199 217 165.645 217 124.5Z" fill="#30FF76" fill-opacity="0.2"></path> </g> <g filter="url(#filter1_d_130_5)"> <g filter="url(#filter2_i_130_5)"> <path d="M73 110C73 105.582 76.5817 102 81 102H145C149.418 102 153 105.582 153 110V154C153 158.418 149.418 162 145 162H81C76.5817 162 73 158.418 73 154V110Z" fill="url(#paint0_linear_130_5)"></path> </g> <g filter="url(#filter3_ii_130_5)"> <path d="M57 122C57 119.791 58.7909 118 61 118H133C135.209 118 137 119.791 137 122V130C137 132.209 135.209 134 133 134H61C58.7909 134 57 132.209 57 130V122Z" fill="white" fill-opacity="0.4"></path> </g> <g filter="url(#filter4_ii_130_5)"> <path d="M57 140C57 138.895 57.8954 138 59 138H127C128.105 138 129 138.895 129 140V148C129 149.105 128.105 150 127 150H59C57.8954 150 57 149.105 57 148V140Z" fill="white" fill-opacity="0.4"></path> </g> <g filter="url(#filter5_ii_130_5)"> <path d="M57 156C57 154.895 57.8954 154 59 154H95C96.1046 154 97 154.895 97 156V160C97 161.105 96.1046 162 95 162H59C57.8954 162 57 161.105 57 160V156Z" fill="white" fill-opacity="0.4"></path> </g> <g filter="url(#filter6_ii_130_5)"> <path d="M108.685 182.763C113.379 190.392 121.946 190.355 126.871 189.768C136.721 188.593 143.621 183.052 141.669 164.413C141.126 159.235 137.162 157.087 132.508 160.263C130.734 155.232 122.161 156.692 122.658 161.438L121.573 151.083C121.167 147.2 119.028 143.523 114.604 144.051C110.179 144.579 110.221 149.816 110.733 154.71L112.661 173.115L108.425 168.378C107.058 167.231 103.477 163.988 100.631 165.376C97.7843 166.764 97.3439 169.7 98.8463 172.142C100.349 174.584 105.68 177.88 108.685 182.763Z" fill="white" fill-opacity="0.6"></path> </g> </g> <defs> <filter id="filter0_f_130_5" x="0" y="0" width="267" height="249" filterUnits="userSpaceOnUse" color-interpolation-filters="sRGB"> <feFlood flood-opacity="0" result="BackgroundImageFix"></feFlood> <feBlend mode="normal" in="SourceGraphic" in2="BackgroundImageFix" result="shape"></feBlend> <feGaussianBlur stdDeviation="25" result="effect1_foregroundBlur_130_5"></feGaussianBlur> </filter> <filter id="filter1_d_130_5" x="53" y="98" width="112" height="104" filterUnits="userSpaceOnUse" color-interpolation-filters="sRGB"> <feFlood flood-opacity="0" result="BackgroundImageFix"></feFlood> <feColorMatrix in="SourceAlpha" type="matrix" values="0 0 0 0 0 0 0 0 0 0 0 0 0 0 0 0 0 0 127 0" result="hardAlpha"></feColorMatrix> <feOffset dx="4" dy="4"></feOffset> <feGaussianBlur stdDeviation="4"></feGaussianBlur> <feColorMatrix type="matrix" values="0 0 0 0 0.258824 0 0 0 0 0.231373 0 0 0 0 0.560784 0 0 0 0.4 0"></feColorMatrix> <feBlend mode="normal" in2="BackgroundImageFix" result="effect1_dropShadow_130_5"></feBlend> <feBlend mode="normal" in="SourceGraphic" in2="effect1_dropShadow_130_5" result="shape"></feBlend> </filter> <filter id="filter2_i_130_5" x="73" y="102" width="80" height="60" filterUnits="userSpaceOnUse" color-interpolation-filters="sRGB"> <feFlood flood-opacity="0" result="BackgroundImageFix"></feFlood> <feBlend mode="normal" in="SourceGraphic" in2="BackgroundImageFix" result="shape"></feBlend> <feColorMatrix in="SourceAlpha" type="matrix" values="0 0 0 0 0 0 0 0 0 0 0 0 0 0 0 0 0 0 127 0" result="hardAlpha"></feColorMatrix> <feOffset></feOffset> <feGaussianBlur stdDeviation="4"></feGaussianBlur> <feComposite in2="hardAlpha" operator="arithmetic" k2="-1" k3="1"></feComposite> <feColorMatrix type="matrix" values="0 0 0 0 1 0 0 0 0 1 0 0 0 0 1 0 0 0 0.8 0"></feColorMatrix> <feBlend mode="normal" in2="shape" result="effect1_innerShadow_130_5"></feBlend> </filter> <filter id="filter3_ii_130_5" x="57" y="118" width="80" height="20" filterUnits="userSpaceOnUse" color-interpolation-filters="sRGB"> <feFlood flood-opacity="0" result="BackgroundImageFix"></feFlood> <feBlend mode="normal" in="SourceGraphic" in2="BackgroundImageFix" result="shape"></feBlend> <feColorMatrix in="SourceAlpha" type="matrix" values="0 0 0 0 0 0 0 0 0 0 0 0 0 0 0 0 0 0 127 0" result="hardAlpha"></feColorMatrix> <feOffset></feOffset> <feGaussianBlur stdDeviation="2"></feGaussianBlur> <feComposite in2="hardAlpha" operator="arithmetic" k2="-1" k3="1"></feComposite> <feColorMatrix type="matrix" values="0 0 0 0 1 0 0 0 0 1 0 0 0 0 1 0 0 0 1 0"></feColorMatrix> <feBlend mode="normal" in2="shape" result="effect1_innerShadow_130_5"></feBlend> <feColorMatrix in="SourceAlpha" type="matrix" values="0 0 0 0 0 0 0 0 0 0 0 0 0 0 0 0 0 0 127 0" result="hardAlpha"></feColorMatrix> <feOffset dy="4"></feOffset> <feGaussianBlur stdDeviation="4"></feGaussianBlur> <feComposite in2="hardAlpha" operator="arithmetic" k2="-1" k3="1"></feComposite> <feColorMatrix type="matrix" values="0 0 0 0 1 0 0 0 0 1 0 0 0 0 1 0 0 0 1 0"></feColorMatrix> <feBlend mode="normal" in2="effect1_innerShadow_130_5" result="effect2_innerShadow_130_5"></feBlend> </filter> <filter id="filter4_ii_130_5" x="57" y="138" width="72" height="16" filterUnits="userSpaceOnUse" color-interpolation-filters="sRGB"> <feFlood flood-opacity="0" result="BackgroundImageFix"></feFlood> <feBlend mode="normal" in="SourceGraphic" in2="BackgroundImageFix" result="shape"></feBlend> <feColorMatrix in="SourceAlpha" type="matrix" values="0 0 0 0 0 0 0 0 0 0 0 0 0 0 0 0 0 0 127 0" result="hardAlpha"></feColorMatrix> <feOffset></feOffset> <feGaussianBlur stdDeviation="2"></feGaussianBlur> <feComposite in2="hardAlpha" operator="arithmetic" k2="-1" k3="1"></feComposite> <feColorMatrix type="matrix" values="0 0 0 0 1 0 0 0 0 1 0 0 0 0 1 0 0 0 1 0"></feColorMatrix> <feBlend mode="normal" in2="shape" result="effect1_innerShadow_130_5"></feBlend> <feColorMatrix in="SourceAlpha" type="matrix" values="0 0 0 0 0 0 0 0 0 0 0 0 0 0 0 0 0 0 127 0" result="hardAlpha"></feColorMatrix> <feOffset dy="4"></feOffset> <feGaussianBlur stdDeviation="4"></feGaussianBlur> <feComposite in2="hardAlpha" operator="arithmetic" k2="-1" k3="1"></feComposite> <feColorMatrix type="matrix" values="0 0 0 0 1 0 0 0 0 1 0 0 0 0 1 0 0 0 1 0"></feColorMatrix> <feBlend mode="normal" in2="effect1_innerShadow_130_5" result="effect2_innerShadow_130_5"></feBlend> </filter> <filter id="filter5_ii_130_5" x="57" y="154" width="40" height="12" filterUnits="userSpaceOnUse" color-interpolation-filters="sRGB"> <feFlood flood-opacity="0" result="BackgroundImageFix"></feFlood> <feBlend mode="normal" in="SourceGraphic" in2="BackgroundImageFix" result="shape"></feBlend> <feColorMatrix in="SourceAlpha" type="matrix" values="0 0 0 0 0 0 0 0 0 0 0 0 0 0 0 0 0 0 127 0" result="hardAlpha"></feColorMatrix> <feOffset></feOffset> <feGaussianBlur stdDeviation="2"></feGaussianBlur> <feComposite in2="hardAlpha" operator="arithmetic" k2="-1" k3="1"></feComposite> <feColorMatrix type="matrix" values="0 0 0 0 1 0 0 0 0 1 0 0 0 0 1 0 0 0 1 0"></feColorMatrix> <feBlend mode="normal" in2="shape" result="effect1_innerShadow_130_5"></feBlend> <feColorMatrix in="SourceAlpha" type="matrix" values="0 0 0 0 0 0 0 0 0 0 0 0 0 0 0 0 0 0 127 0" result="hardAlpha"></feColorMatrix> <feOffset dy="4"></feOffset> <feGaussianBlur stdDeviation="4"></feGaussianBlur> <feComposite in2="hardAlpha" operator="arithmetic" k2="-1" k3="1"></feComposite> <feColorMatrix type="matrix" values="0 0 0 0 1 0 0 0 0 1 0 0 0 0 1 0 0 0 1 0"></feColorMatrix> <feBlend mode="normal" in2="effect1_innerShadow_130_5" result="effect2_innerShadow_130_5"></feBlend> </filter> <filter id="filter6_ii_130_5" x="98" y="144" width="44.0002" height="49.9998" filterUnits="userSpaceOnUse" color-interpolation-filters="sRGB"> <feFlood flood-opacity="0" result="BackgroundImageFix"></feFlood> <feBlend mode="normal" in="SourceGraphic" in2="BackgroundImageFix" result="shape"></feBlend> <feColorMatrix in="SourceAlpha" type="matrix" values="0 0 0 0 0 0 0 0 0 0 0 0 0 0 0 0 0 0 127 0" result="hardAlpha"></feColorMatrix> <feOffset></feOffset> <feGaussianBlur stdDeviation="2"></feGaussianBlur> <feComposite in2="hardAlpha" operator="arithmetic" k2="-1" k3="1"></feComposite> <feColorMatrix type="matrix" values="0 0 0 0 1 0 0 0 0 1 0 0 0 0 1 0 0 0 1 0"></feColorMatrix> <feBlend mode="normal" in2="shape" result="effect1_innerShadow_130_5"></feBlend> <feColorMatrix in="SourceAlpha" type="matrix" values="0 0 0 0 0 0 0 0 0 0 0 0 0 0 0 0 0 0 127 0" result="hardAlpha"></feColorMatrix> <feOffset dy="4"></feOffset> <feGaussianBlur stdDeviation="4"></feGaussianBlur> <feComposite in2="hardAlpha" operator="arithmetic" k2="-1" k3="1"></feComposite> <feColorMatrix type="matrix" values="0 0 0 0 1 0 0 0 0 1 0 0 0 0 1 0 0 0 1 0"></feColorMatrix> <feBlend mode="normal" in2="effect1_innerShadow_130_5" result="effect2_innerShadow_130_5"></feBlend> </filter> <linearGradient id="paint0_linear_130_5" x1="113" y1="102" x2="113" y2="162" gradientUnits="userSpaceOnUse"> <stop stop-color="#645CB9"></stop> <stop offset="1" stop-color="#423B8F"></stop> </linearGradient> </defs> </svg> 