<?xml version="1.0" encoding="UTF-8"?> <svg xmlns="http://www.w3.org/2000/svg" width="267" height="249" viewBox="0 0 267 249" fill="none"> <g filter="url(#filter0_f_130_6)"> <path d="M217 124.5C217 83.3548 177.794 92.7507 133.5 50C83.5197 65.8008 50 83.3548 50 124.5C50 165.645 87.3842 199 133.5 199C179.616 199 217 165.645 217 124.5Z" fill="#FF83C6" fill-opacity="0.2"></path> </g> <g filter="url(#filter1_d_130_6)"> <g filter="url(#filter2_i_130_6)"> <path d="M144 140C144 162.091 126.091 180 104 180C81.9086 180 64 162.091 64 140C64 117.909 81.9086 100 104 100C126.091 100 144 117.909 144 140Z" fill="url(#paint0_linear_130_6)"></path> </g> <g filter="url(#filter3_ii_130_6)"> <path fill-rule="evenodd" clip-rule="evenodd" d="M93.7524 115.186C92.9925 113.805 91.0074 113.805 90.2475 115.186L49.6301 189.036C48.897 190.369 49.8613 192 51.3825 192H132.617C134.139 192 135.103 190.369 134.37 189.036L93.7524 115.186ZM91.9999 136C95.3137 136 97.9999 138.686 97.9999 142V162C97.9999 165.314 95.3137 168 91.9999 168C88.6862 168 85.9999 165.314 85.9999 162V142C85.9999 138.686 88.6862 136 91.9999 136ZM97.9999 178C97.9999 181.314 95.3137 184 91.9999 184C88.6862 184 85.9999 181.314 85.9999 178C85.9999 174.686 88.6862 172 91.9999 172C95.3137 172 97.9999 174.686 97.9999 178Z" fill="white" fill-opacity="0.4"></path> </g> </g> <defs> <filter id="filter0_f_130_6" x="0" y="0" width="267" height="249" filterUnits="userSpaceOnUse" color-interpolation-filters="sRGB"> <feFlood flood-opacity="0" result="BackgroundImageFix"></feFlood> <feBlend mode="normal" in="SourceGraphic" in2="BackgroundImageFix" result="shape"></feBlend> <feGaussianBlur stdDeviation="25" result="effect1_foregroundBlur_130_6"></feGaussianBlur> </filter> <filter id="filter1_d_130_6" x="45.3796" y="96" width="110.62" height="108" filterUnits="userSpaceOnUse" color-interpolation-filters="sRGB"> <feFlood flood-opacity="0" result="BackgroundImageFix"></feFlood> <feColorMatrix in="SourceAlpha" type="matrix" values="0 0 0 0 0 0 0 0 0 0 0 0 0 0 0 0 0 0 127 0" result="hardAlpha"></feColorMatrix> <feOffset dx="4" dy="4"></feOffset> <feGaussianBlur stdDeviation="4"></feGaussianBlur> <feColorMatrix type="matrix" values="0 0 0 0 0.1875 0 0 0 0 1 0 0 0 0 0.46375 0 0 0 0.4 0"></feColorMatrix> <feBlend mode="normal" in2="BackgroundImageFix" result="effect1_dropShadow_130_6"></feBlend> <feBlend mode="normal" in="SourceGraphic" in2="effect1_dropShadow_130_6" result="shape"></feBlend> </filter> <filter id="filter2_i_130_6" x="64" y="100" width="80" height="80" filterUnits="userSpaceOnUse" color-interpolation-filters="sRGB"> <feFlood flood-opacity="0" result="BackgroundImageFix"></feFlood> <feBlend mode="normal" in="SourceGraphic" in2="BackgroundImageFix" result="shape"></feBlend> <feColorMatrix in="SourceAlpha" type="matrix" values="0 0 0 0 0 0 0 0 0 0 0 0 0 0 0 0 0 0 127 0" result="hardAlpha"></feColorMatrix> <feOffset></feOffset> <feGaussianBlur stdDeviation="4"></feGaussianBlur> <feComposite in2="hardAlpha" operator="arithmetic" k2="-1" k3="1"></feComposite> <feColorMatrix type="matrix" values="0 0 0 0 1 0 0 0 0 1 0 0 0 0 1 0 0 0 0.8 0"></feColorMatrix> <feBlend mode="normal" in2="shape" result="effect1_innerShadow_130_6"></feBlend> </filter> <filter id="filter3_ii_130_6" x="49.3796" y="114.15" width="85.2407" height="81.8499" filterUnits="userSpaceOnUse" color-interpolation-filters="sRGB"> <feFlood flood-opacity="0" result="BackgroundImageFix"></feFlood> <feBlend mode="normal" in="SourceGraphic" in2="BackgroundImageFix" result="shape"></feBlend> <feColorMatrix in="SourceAlpha" type="matrix" values="0 0 0 0 0 0 0 0 0 0 0 0 0 0 0 0 0 0 127 0" result="hardAlpha"></feColorMatrix> <feOffset></feOffset> <feGaussianBlur stdDeviation="2"></feGaussianBlur> <feComposite in2="hardAlpha" operator="arithmetic" k2="-1" k3="1"></feComposite> <feColorMatrix type="matrix" values="0 0 0 0 1 0 0 0 0 1 0 0 0 0 1 0 0 0 1 0"></feColorMatrix> <feBlend mode="normal" in2="shape" result="effect1_innerShadow_130_6"></feBlend> <feColorMatrix in="SourceAlpha" type="matrix" values="0 0 0 0 0 0 0 0 0 0 0 0 0 0 0 0 0 0 127 0" result="hardAlpha"></feColorMatrix> <feOffset dy="4"></feOffset> <feGaussianBlur stdDeviation="4"></feGaussianBlur> <feComposite in2="hardAlpha" operator="arithmetic" k2="-1" k3="1"></feComposite> <feColorMatrix type="matrix" values="0 0 0 0 1 0 0 0 0 1 0 0 0 0 1 0 0 0 1 0"></feColorMatrix> <feBlend mode="normal" in2="effect1_innerShadow_130_6" result="effect2_innerShadow_130_6"></feBlend> </filter> <linearGradient id="paint0_linear_130_6" x1="104" y1="100" x2="104" y2="180" gradientUnits="userSpaceOnUse"> <stop stop-color="#21EB66"></stop> <stop offset="1" stop-color="#12D583"></stop> </linearGradient> </defs> </svg> 