<?xml version="1.0" encoding="UTF-8"?> <svg xmlns="http://www.w3.org/2000/svg" width="386" height="373" viewBox="0 0 386 373" fill="none"> <g filter="url(#filter0_d_83_377)"> <g filter="url(#filter1_i_83_377)"> <path d="M88.4082 107.674C88.4082 95.4676 98.3036 85.5723 110.51 85.5723H287.327C299.533 85.5723 309.429 95.4676 309.429 107.674V229.236C309.429 241.443 299.533 251.338 287.327 251.338H110.51C98.3036 251.338 88.4082 241.443 88.4082 229.236V107.674Z" fill="url(#paint0_linear_83_377)"></path> </g> <g filter="url(#filter2_ii_83_377)"> <path d="M44.2041 151.878V162.93H265.225V151.878C265.225 139.672 255.33 129.776 243.123 129.776H66.3062C54.0995 129.776 44.2041 139.672 44.2041 151.878Z" fill="white" fill-opacity="0.4"></path> </g> <g filter="url(#filter3_ii_83_377)"> <path fill-rule="evenodd" clip-rule="evenodd" d="M265.225 173.98V284.491C265.225 296.697 255.33 306.593 243.123 306.593H66.3062C54.0995 306.593 44.2041 296.697 44.2041 284.491V173.98H265.225ZM221.021 218.185C227.124 218.185 232.072 213.237 232.072 207.134C232.072 201.03 227.124 196.083 221.021 196.083C214.918 196.083 209.97 201.03 209.97 207.134C209.97 213.237 214.918 218.185 221.021 218.185Z" fill="white" fill-opacity="0.4"></path> </g> <g filter="url(#filter4_ii_83_377)"> <path d="M99.4593 273.44C99.4593 279.543 94.5114 284.491 88.4082 284.491C82.305 284.491 77.3572 279.543 77.3572 273.44C77.3572 267.337 82.305 262.389 88.4082 262.389C94.5114 262.389 99.4593 267.337 99.4593 273.44Z" fill="white" fill-opacity="0.6"></path> <path d="M99.4593 240.287C99.4593 246.39 94.5114 251.338 88.4082 251.338C82.305 251.338 77.3572 246.39 77.3572 240.287C77.3572 234.184 82.305 229.236 88.4082 229.236C94.5114 229.236 99.4593 234.184 99.4593 240.287Z" fill="white" fill-opacity="0.6"></path> <path d="M99.4593 207.134C99.4593 213.237 94.5114 218.185 88.4082 218.185C82.305 218.185 77.3572 213.237 77.3572 207.134C77.3572 201.03 82.305 196.083 88.4082 196.083C94.5114 196.083 99.4593 201.03 99.4593 207.134Z" fill="white" fill-opacity="0.6"></path> <path d="M143.663 273.44C143.663 279.543 138.716 284.491 132.612 284.491C126.509 284.491 121.561 279.543 121.561 273.44C121.561 267.337 126.509 262.389 132.612 262.389C138.716 262.389 143.663 267.337 143.663 273.44Z" fill="white" fill-opacity="0.6"></path> <path d="M143.663 240.287C143.663 246.39 138.716 251.338 132.612 251.338C126.509 251.338 121.561 246.39 121.561 240.287C121.561 234.184 126.509 229.236 132.612 229.236C138.716 229.236 143.663 234.184 143.663 240.287Z" fill="white" fill-opacity="0.6"></path> <path d="M143.663 207.134C143.663 213.237 138.716 218.185 132.612 218.185C126.509 218.185 121.561 213.237 121.561 207.134C121.561 201.03 126.509 196.083 132.612 196.083C138.716 196.083 143.663 201.03 143.663 207.134Z" fill="white" fill-opacity="0.6"></path> <path d="M187.868 273.44C187.868 279.543 182.92 284.491 176.817 284.491C170.713 284.491 165.766 279.543 165.766 273.44C165.766 267.337 170.713 262.389 176.817 262.389C182.92 262.389 187.868 267.337 187.868 273.44Z" fill="white" fill-opacity="0.6"></path> <path d="M187.868 240.287C187.868 246.39 182.92 251.338 176.817 251.338C170.713 251.338 165.766 246.39 165.766 240.287C165.766 234.184 170.713 229.236 176.817 229.236C182.92 229.236 187.868 234.184 187.868 240.287Z" fill="white" fill-opacity="0.6"></path> <path d="M187.868 207.134C187.868 213.237 182.92 218.185 176.817 218.185C170.713 218.185 165.766 213.237 165.766 207.134C165.766 201.03 170.713 196.083 176.817 196.083C182.92 196.083 187.868 201.03 187.868 207.134Z" fill="white" fill-opacity="0.6"></path> <path d="M232.072 273.44C232.072 279.543 227.124 284.491 221.021 284.491C214.918 284.491 209.97 279.543 209.97 273.44C209.97 267.337 214.918 262.389 221.021 262.389C227.124 262.389 232.072 267.337 232.072 273.44Z" fill="white" fill-opacity="0.6"></path> <path d="M232.072 240.287C232.072 246.39 227.124 251.338 221.021 251.338C214.918 251.338 209.97 246.39 209.97 240.287C209.97 234.184 214.918 229.236 221.021 229.236C227.124 229.236 232.072 234.184 232.072 240.287Z" fill="white" fill-opacity="0.6"></path> </g> </g> <g filter="url(#filter5_d_83_377)"> <g filter="url(#filter6_i_83_377)"> <path d="M251.739 75.6075C251.739 81.641 258.802 84.8906 260.836 90.209C262.902 95.61 259.967 103.066 263.727 107.325C268.284 112.488 276.46 110.714 282.843 113.536C288.766 116.155 292.796 123.558 299.689 123.558C306.582 123.558 310.612 116.155 316.536 113.536C322.919 110.714 331.095 112.488 335.652 107.325C339.411 103.066 336.477 95.61 338.542 90.209C340.577 84.8906 347.64 81.641 347.64 75.6075C347.64 69.5741 340.577 66.3245 338.542 61.0061C336.709 56.2128 340.077 49.2653 336.892 45.3534C332.655 40.1495 327.348 41.8002 321.306 38.7435C314.811 35.4574 307.466 27.6572 299.689 27.6572C291.912 27.6572 284.568 35.4574 278.073 38.7435C272.031 41.8002 266.723 40.1495 262.486 45.3534C259.301 49.2653 262.669 56.2128 260.836 61.0061C258.802 66.3245 251.739 69.5741 251.739 75.6075Z" fill="url(#paint1_linear_83_377)"></path> </g> <g filter="url(#filter7_ii_83_377)"> <path d="M270.919 94.7877C270.919 100.821 277.982 104.071 280.016 109.389C282.082 114.79 279.148 122.246 282.907 126.505C287.464 131.669 295.64 129.893 302.023 132.716C307.947 135.334 311.976 142.738 318.87 142.738C325.763 142.738 329.792 135.334 335.716 132.716C342.099 129.893 350.275 131.669 354.832 126.505C358.591 122.246 355.657 114.79 357.723 109.389C359.757 104.071 366.82 100.821 366.82 94.7877C366.82 88.7542 359.757 85.5047 357.723 80.1862C355.889 75.393 359.258 68.4455 356.072 64.5336C351.835 59.3297 346.528 60.9803 340.486 57.9236C333.991 54.6376 326.646 46.8374 318.87 46.8374C311.093 46.8374 303.748 54.6376 297.253 57.9236C291.211 60.9803 285.904 59.3297 281.666 64.5336C278.481 68.4455 281.85 75.393 280.016 80.1862C277.982 85.5047 270.919 88.7542 270.919 94.7877Z" fill="white" fill-opacity="0.4"></path> </g> <g filter="url(#filter8_ii_83_377)"> <path fill-rule="evenodd" clip-rule="evenodd" d="M341.791 71.8658C343.196 73.2703 343.196 75.5472 341.791 76.9517L301.033 117.709C299.629 119.114 297.352 119.114 295.948 117.709C294.543 116.305 294.543 114.028 295.948 112.624L336.705 71.8658C338.11 70.4614 340.387 70.4614 341.791 71.8658Z" fill="white" fill-opacity="0.6"></path> <path fill-rule="evenodd" clip-rule="evenodd" d="M333.255 105.576C331.268 105.576 329.658 107.186 329.658 109.173C329.658 111.159 331.268 112.769 333.255 112.769C335.241 112.769 336.851 111.159 336.851 109.173C336.851 107.186 335.241 105.576 333.255 105.576ZM322.466 109.173C322.466 103.214 327.296 98.3838 333.255 98.3838C339.213 98.3838 344.043 103.214 344.043 109.173C344.043 115.131 339.213 119.961 333.255 119.961C327.296 119.961 322.466 115.131 322.466 109.173Z" fill="white" fill-opacity="0.6"></path> <path fill-rule="evenodd" clip-rule="evenodd" d="M304.484 76.8063C302.498 76.8063 300.888 78.4164 300.888 80.4026C300.888 82.3888 302.498 83.9989 304.484 83.9989C306.471 83.9989 308.081 82.3888 308.081 80.4026C308.081 78.4164 306.471 76.8063 304.484 76.8063ZM293.696 80.4026C293.696 74.444 298.526 69.6138 304.484 69.6138C310.443 69.6138 315.273 74.444 315.273 80.4026C315.273 86.3611 310.443 91.1914 304.484 91.1914C298.526 91.1914 293.696 86.3611 293.696 80.4026Z" fill="white" fill-opacity="0.6"></path> </g> </g> <defs> <filter id="filter0_d_83_377" x="33.1531" y="74.5212" width="309.429" height="265.225" filterUnits="userSpaceOnUse" color-interpolation-filters="sRGB"> <feFlood flood-opacity="0" result="BackgroundImageFix"></feFlood> <feColorMatrix in="SourceAlpha" type="matrix" values="0 0 0 0 0 0 0 0 0 0 0 0 0 0 0 0 0 0 127 0" result="hardAlpha"></feColorMatrix> <feOffset dx="11.051" dy="11.051"></feOffset> <feGaussianBlur stdDeviation="11.051"></feGaussianBlur> <feColorMatrix type="matrix" values="0 0 0 0 0.392157 0 0 0 0 0.360784 0 0 0 0 0.72549 0 0 0 0.4 0"></feColorMatrix> <feBlend mode="normal" in2="BackgroundImageFix" result="effect1_dropShadow_83_377"></feBlend> <feBlend mode="normal" in="SourceGraphic" in2="effect1_dropShadow_83_377" result="shape"></feBlend> </filter> <filter id="filter1_i_83_377" x="88.4082" y="85.5723" width="221.021" height="165.766" filterUnits="userSpaceOnUse" color-interpolation-filters="sRGB"> <feFlood flood-opacity="0" result="BackgroundImageFix"></feFlood> <feBlend mode="normal" in="SourceGraphic" in2="BackgroundImageFix" result="shape"></feBlend> <feColorMatrix in="SourceAlpha" type="matrix" values="0 0 0 0 0 0 0 0 0 0 0 0 0 0 0 0 0 0 127 0" result="hardAlpha"></feColorMatrix> <feOffset></feOffset> <feGaussianBlur stdDeviation="11.051"></feGaussianBlur> <feComposite in2="hardAlpha" operator="arithmetic" k2="-1" k3="1"></feComposite> <feColorMatrix type="matrix" values="0 0 0 0 1 0 0 0 0 1 0 0 0 0 1 0 0 0 0.8 0"></feColorMatrix> <feBlend mode="normal" in2="shape" result="effect1_innerShadow_83_377"></feBlend> </filter> <filter id="filter2_ii_83_377" x="44.2041" y="129.776" width="221.021" height="44.2044" filterUnits="userSpaceOnUse" color-interpolation-filters="sRGB"> <feFlood flood-opacity="0" result="BackgroundImageFix"></feFlood> <feBlend mode="normal" in="SourceGraphic" in2="BackgroundImageFix" result="shape"></feBlend> <feColorMatrix in="SourceAlpha" type="matrix" values="0 0 0 0 0 0 0 0 0 0 0 0 0 0 0 0 0 0 127 0" result="hardAlpha"></feColorMatrix> <feOffset></feOffset> <feGaussianBlur stdDeviation="5.52552"></feGaussianBlur> <feComposite in2="hardAlpha" operator="arithmetic" k2="-1" k3="1"></feComposite> <feColorMatrix type="matrix" values="0 0 0 0 1 0 0 0 0 1 0 0 0 0 1 0 0 0 1 0"></feColorMatrix> <feBlend mode="normal" in2="shape" result="effect1_innerShadow_83_377"></feBlend> <feColorMatrix in="SourceAlpha" type="matrix" values="0 0 0 0 0 0 0 0 0 0 0 0 0 0 0 0 0 0 127 0" result="hardAlpha"></feColorMatrix> <feOffset dy="11.051"></feOffset> <feGaussianBlur stdDeviation="11.051"></feGaussianBlur> <feComposite in2="hardAlpha" operator="arithmetic" k2="-1" k3="1"></feComposite> <feColorMatrix type="matrix" values="0 0 0 0 1 0 0 0 0 1 0 0 0 0 1 0 0 0 1 0"></feColorMatrix> <feBlend mode="normal" in2="effect1_innerShadow_83_377" result="effect2_innerShadow_83_377"></feBlend> </filter> <filter id="filter3_ii_83_377" x="44.2041" y="173.98" width="221.021" height="143.664" filterUnits="userSpaceOnUse" color-interpolation-filters="sRGB"> <feFlood flood-opacity="0" result="BackgroundImageFix"></feFlood> <feBlend mode="normal" in="SourceGraphic" in2="BackgroundImageFix" result="shape"></feBlend> <feColorMatrix in="SourceAlpha" type="matrix" values="0 0 0 0 0 0 0 0 0 0 0 0 0 0 0 0 0 0 127 0" result="hardAlpha"></feColorMatrix> <feOffset></feOffset> <feGaussianBlur stdDeviation="5.52552"></feGaussianBlur> <feComposite in2="hardAlpha" operator="arithmetic" k2="-1" k3="1"></feComposite> <feColorMatrix type="matrix" values="0 0 0 0 1 0 0 0 0 1 0 0 0 0 1 0 0 0 1 0"></feColorMatrix> <feBlend mode="normal" in2="shape" result="effect1_innerShadow_83_377"></feBlend> <feColorMatrix in="SourceAlpha" type="matrix" values="0 0 0 0 0 0 0 0 0 0 0 0 0 0 0 0 0 0 127 0" result="hardAlpha"></feColorMatrix> <feOffset dy="11.051"></feOffset> <feGaussianBlur stdDeviation="11.051"></feGaussianBlur> <feComposite in2="hardAlpha" operator="arithmetic" k2="-1" k3="1"></feComposite> <feColorMatrix type="matrix" values="0 0 0 0 1 0 0 0 0 1 0 0 0 0 1 0 0 0 1 0"></feColorMatrix> <feBlend mode="normal" in2="effect1_innerShadow_83_377" result="effect2_innerShadow_83_377"></feBlend> </filter> <filter id="filter4_ii_83_377" x="77.3572" y="196.083" width="154.715" height="99.4593" filterUnits="userSpaceOnUse" color-interpolation-filters="sRGB"> <feFlood flood-opacity="0" result="BackgroundImageFix"></feFlood> <feBlend mode="normal" in="SourceGraphic" in2="BackgroundImageFix" result="shape"></feBlend> <feColorMatrix in="SourceAlpha" type="matrix" values="0 0 0 0 0 0 0 0 0 0 0 0 0 0 0 0 0 0 127 0" result="hardAlpha"></feColorMatrix> <feOffset></feOffset> <feGaussianBlur stdDeviation="5.52552"></feGaussianBlur> <feComposite in2="hardAlpha" operator="arithmetic" k2="-1" k3="1"></feComposite> <feColorMatrix type="matrix" values="0 0 0 0 1 0 0 0 0 1 0 0 0 0 1 0 0 0 1 0"></feColorMatrix> <feBlend mode="normal" in2="shape" result="effect1_innerShadow_83_377"></feBlend> <feColorMatrix in="SourceAlpha" type="matrix" values="0 0 0 0 0 0 0 0 0 0 0 0 0 0 0 0 0 0 127 0" result="hardAlpha"></feColorMatrix> <feOffset dy="11.051"></feOffset> <feGaussianBlur stdDeviation="11.051"></feGaussianBlur> <feComposite in2="hardAlpha" operator="arithmetic" k2="-1" k3="1"></feComposite> <feColorMatrix type="matrix" values="0 0 0 0 1 0 0 0 0 1 0 0 0 0 1 0 0 0 1 0"></feColorMatrix> <feBlend mode="normal" in2="effect1_innerShadow_83_377" result="effect2_innerShadow_83_377"></feBlend> </filter> <filter id="filter5_d_83_377" x="246.944" y="22.8622" width="134.261" height="134.261" filterUnits="userSpaceOnUse" color-interpolation-filters="sRGB"> <feFlood flood-opacity="0" result="BackgroundImageFix"></feFlood> <feColorMatrix in="SourceAlpha" type="matrix" values="0 0 0 0 0 0 0 0 0 0 0 0 0 0 0 0 0 0 127 0" result="hardAlpha"></feColorMatrix> <feOffset dx="4.79503" dy="4.79503"></feOffset> <feGaussianBlur stdDeviation="4.79503"></feGaussianBlur> <feColorMatrix type="matrix" values="0 0 0 0 0.129412 0 0 0 0 0.921569 0 0 0 0 0.4 0 0 0 0.4 0"></feColorMatrix> <feBlend mode="normal" in2="BackgroundImageFix" result="effect1_dropShadow_83_377"></feBlend> <feBlend mode="normal" in="SourceGraphic" in2="effect1_dropShadow_83_377" result="shape"></feBlend> </filter> <filter id="filter6_i_83_377" x="251.739" y="27.6572" width="95.9006" height="95.9004" filterUnits="userSpaceOnUse" color-interpolation-filters="sRGB"> <feFlood flood-opacity="0" result="BackgroundImageFix"></feFlood> <feBlend mode="normal" in="SourceGraphic" in2="BackgroundImageFix" result="shape"></feBlend> <feColorMatrix in="SourceAlpha" type="matrix" values="0 0 0 0 0 0 0 0 0 0 0 0 0 0 0 0 0 0 127 0" result="hardAlpha"></feColorMatrix> <feOffset></feOffset> <feGaussianBlur stdDeviation="4.79503"></feGaussianBlur> <feComposite in2="hardAlpha" operator="arithmetic" k2="-1" k3="1"></feComposite> <feColorMatrix type="matrix" values="0 0 0 0 1 0 0 0 0 1 0 0 0 0 1 0 0 0 0.8 0"></feColorMatrix> <feBlend mode="normal" in2="shape" result="effect1_innerShadow_83_377"></feBlend> </filter> <filter id="filter7_ii_83_377" x="270.919" y="46.8374" width="95.9006" height="100.695" filterUnits="userSpaceOnUse" color-interpolation-filters="sRGB"> <feFlood flood-opacity="0" result="BackgroundImageFix"></feFlood> <feBlend mode="normal" in="SourceGraphic" in2="BackgroundImageFix" result="shape"></feBlend> <feColorMatrix in="SourceAlpha" type="matrix" values="0 0 0 0 0 0 0 0 0 0 0 0 0 0 0 0 0 0 127 0" result="hardAlpha"></feColorMatrix> <feOffset></feOffset> <feGaussianBlur stdDeviation="2.39752"></feGaussianBlur> <feComposite in2="hardAlpha" operator="arithmetic" k2="-1" k3="1"></feComposite> <feColorMatrix type="matrix" values="0 0 0 0 1 0 0 0 0 1 0 0 0 0 1 0 0 0 1 0"></feColorMatrix> <feBlend mode="normal" in2="shape" result="effect1_innerShadow_83_377"></feBlend> <feColorMatrix in="SourceAlpha" type="matrix" values="0 0 0 0 0 0 0 0 0 0 0 0 0 0 0 0 0 0 127 0" result="hardAlpha"></feColorMatrix> <feOffset dy="4.79503"></feOffset> <feGaussianBlur stdDeviation="4.79503"></feGaussianBlur> <feComposite in2="hardAlpha" operator="arithmetic" k2="-1" k3="1"></feComposite> <feColorMatrix type="matrix" values="0 0 0 0 1 0 0 0 0 1 0 0 0 0 1 0 0 0 1 0"></feColorMatrix> <feBlend mode="normal" in2="effect1_innerShadow_83_377" result="effect2_innerShadow_83_377"></feBlend> </filter> <filter id="filter8_ii_83_377" x="293.696" y="69.6138" width="50.3479" height="55.1427" filterUnits="userSpaceOnUse" color-interpolation-filters="sRGB"> <feFlood flood-opacity="0" result="BackgroundImageFix"></feFlood> <feBlend mode="normal" in="SourceGraphic" in2="BackgroundImageFix" result="shape"></feBlend> <feColorMatrix in="SourceAlpha" type="matrix" values="0 0 0 0 0 0 0 0 0 0 0 0 0 0 0 0 0 0 127 0" result="hardAlpha"></feColorMatrix> <feOffset></feOffset> <feGaussianBlur stdDeviation="2.39752"></feGaussianBlur> <feComposite in2="hardAlpha" operator="arithmetic" k2="-1" k3="1"></feComposite> <feColorMatrix type="matrix" values="0 0 0 0 1 0 0 0 0 1 0 0 0 0 1 0 0 0 1 0"></feColorMatrix> <feBlend mode="normal" in2="shape" result="effect1_innerShadow_83_377"></feBlend> <feColorMatrix in="SourceAlpha" type="matrix" values="0 0 0 0 0 0 0 0 0 0 0 0 0 0 0 0 0 0 127 0" result="hardAlpha"></feColorMatrix> <feOffset dy="4.79503"></feOffset> <feGaussianBlur stdDeviation="4.79503"></feGaussianBlur> <feComposite in2="hardAlpha" operator="arithmetic" k2="-1" k3="1"></feComposite> <feColorMatrix type="matrix" values="0 0 0 0 1 0 0 0 0 1 0 0 0 0 1 0 0 0 1 0"></feColorMatrix> <feBlend mode="normal" in2="effect1_innerShadow_83_377" result="effect2_innerShadow_83_377"></feBlend> </filter> <linearGradient id="paint0_linear_83_377" x1="198.919" y1="85.5723" x2="198.919" y2="251.338" gradientUnits="userSpaceOnUse"> <stop stop-color="#645CB9"></stop> <stop offset="1" stop-color="#423B8F"></stop> </linearGradient> <linearGradient id="paint1_linear_83_377" x1="299.689" y1="27.6572" x2="299.689" y2="123.558" gradientUnits="userSpaceOnUse"> <stop stop-color="#21EB66"></stop> <stop offset="1" stop-color="#12D583"></stop> </linearGradient> </defs> </svg> 