<?xml version="1.0" encoding="UTF-8"?> <svg xmlns="http://www.w3.org/2000/svg" width="2878" height="1184" viewBox="0 0 2878 1184" fill="none"> <g opacity="0.7"> <g filter="url(#filter0_f_152_19)"> <ellipse rx="186.705" ry="155.36" transform="matrix(1 -8.74228e-08 -8.74228e-08 -1 1042.69 604.382)" fill="#60BCFF" fill-opacity="0.1"></ellipse> </g> <g filter="url(#filter1_f_152_19)"> <path d="M1080.08 471.63C1080.08 395.687 949.224 413.029 801.386 334.122C634.569 363.286 522.691 395.687 522.691 471.63C522.691 547.573 647.467 609.137 801.386 609.137C955.305 609.137 1080.08 547.573 1080.08 471.63Z" fill="#7FCDEA"></path> </g> <g filter="url(#filter2_f_152_19)"> <path d="M1430.99 721.484C1430.99 635.018 1299.51 562.337 1137.32 562.337C999.261 613.389 942.988 686.071 942.988 772.537C942.988 859.003 1068.89 827.673 1167.93 866.337C1330.12 866.337 1430.99 807.95 1430.99 721.484Z" fill="#FFF27D" fill-opacity="0.9"></path> </g> <g filter="url(#filter3_f_152_19)"> <path d="M1135.09 638.632C1135.09 562.688 1004.24 580.031 856.398 501.124C689.581 530.288 577.703 562.688 577.703 638.632C577.703 714.575 702.479 776.139 856.398 776.139C1010.32 776.139 1135.09 714.575 1135.09 638.632Z" fill="#6050FF"></path> </g> <g filter="url(#filter4_f_152_19)"> <path d="M1355.9 699.771C1355.9 623.828 1225.04 641.17 1077.2 562.263C910.387 591.428 798.509 623.828 798.509 699.771C798.509 775.714 923.285 837.279 1077.2 837.278C1231.12 837.278 1355.9 775.714 1355.9 699.771Z" fill="#30FF76"></path> </g> <g opacity="0.4" filter="url(#filter5_f_152_19)"> <ellipse rx="169.109" ry="289.178" transform="matrix(0.374884 -0.927072 -0.996314 0.0857859 746.508 750.755)" fill="#7FCDEA"></ellipse> </g> </g> <g opacity="0.5"> <g filter="url(#filter6_f_152_19)"> <path d="M2482.99 488.415C2482.99 558.16 2366.41 616.786 2222.6 616.786C2100.19 575.607 2050.3 516.981 2050.3 447.236C2050.3 377.491 2161.93 402.762 2249.75 371.575C2393.55 371.575 2482.99 418.67 2482.99 488.415Z" fill="#423B8F"></path> </g> <g filter="url(#filter7_f_152_19)"> <path d="M2140.7 629.064C2140.7 690.23 2035.3 676.262 1916.23 739.815C1781.87 716.326 1691.77 690.23 1691.77 629.064C1691.77 567.898 1792.26 518.313 1916.23 518.313C2040.2 518.313 2140.7 567.898 2140.7 629.064Z" fill="#FFF27D"></path> </g> <g filter="url(#filter8_f_152_19)"> <path d="M2459.41 434.111C2459.41 503.825 2363.23 562.425 2244.6 562.425C2143.62 521.263 2102.45 462.664 2102.45 392.95C2102.45 323.236 2194.55 348.496 2266.99 317.323C2385.62 317.323 2459.41 364.397 2459.41 434.111Z" fill="#FF83C6"></path> </g> <g filter="url(#filter9_f_152_19)"> <path d="M2185.01 494.556C2185.01 555.722 2079.61 541.754 1960.54 605.307C1826.18 581.818 1736.07 555.722 1736.07 494.556C1736.07 433.39 1836.57 383.805 1960.54 383.805C2084.51 383.805 2185.01 433.39 2185.01 494.556Z" fill="#F3F462"></path> </g> <g filter="url(#filter10_f_152_19)"> <ellipse cx="2141.61" cy="506.868" rx="198.233" ry="126.228" fill="#7FCDEA"></ellipse> </g> <g filter="url(#filter11_f_152_19)"> <path d="M2362.84 445.313C2362.84 506.479 2257.45 492.511 2138.38 556.064C2004.02 532.575 1913.91 506.479 1913.91 445.313C1913.91 384.147 2014.41 334.562 2138.38 334.562C2262.35 334.562 2362.84 384.147 2362.84 445.313Z" fill="#7FCDEA"></path> </g> <g opacity="0.4" filter="url(#filter12_f_152_19)"> <ellipse rx="136.204" ry="232.91" transform="matrix(0.374884 0.927072 -0.996314 -0.0857858 1872.02 404.251)" fill="#F3F462"></ellipse> </g> </g> <defs> <filter id="filter0_f_152_19" x="538.677" y="131.715" width="1008.02" height="945.334" filterUnits="userSpaceOnUse" color-interpolation-filters="sRGB"> <feFlood flood-opacity="0" result="BackgroundImageFix"></feFlood> <feBlend mode="normal" in="SourceGraphic" in2="BackgroundImageFix" result="shape"></feBlend> <feGaussianBlur stdDeviation="158.653" result="effect1_foregroundBlur_152_19"></feGaussianBlur> </filter> <filter id="filter1_f_152_19" x="204.402" y="15.8333" width="1193.97" height="911.593" filterUnits="userSpaceOnUse" color-interpolation-filters="sRGB"> <feFlood flood-opacity="0" result="BackgroundImageFix"></feFlood> <feBlend mode="normal" in="SourceGraphic" in2="BackgroundImageFix" result="shape"></feBlend> <feGaussianBlur stdDeviation="159.145" result="effect1_foregroundBlur_152_19"></feGaussianBlur> </filter> <filter id="filter2_f_152_19" x="625.681" y="245.03" width="1122.61" height="938.613" filterUnits="userSpaceOnUse" color-interpolation-filters="sRGB"> <feFlood flood-opacity="0" result="BackgroundImageFix"></feFlood> <feBlend mode="normal" in="SourceGraphic" in2="BackgroundImageFix" result="shape"></feBlend> <feGaussianBlur stdDeviation="158.653" result="effect1_foregroundBlur_152_19"></feGaussianBlur> </filter> <filter id="filter3_f_152_19" x="259.414" y="182.835" width="1193.97" height="911.593" filterUnits="userSpaceOnUse" color-interpolation-filters="sRGB"> <feFlood flood-opacity="0" result="BackgroundImageFix"></feFlood> <feBlend mode="normal" in="SourceGraphic" in2="BackgroundImageFix" result="shape"></feBlend> <feGaussianBlur stdDeviation="159.145" result="effect1_foregroundBlur_152_19"></feGaussianBlur> </filter> <filter id="filter4_f_152_19" x="480.22" y="243.974" width="1193.97" height="911.593" filterUnits="userSpaceOnUse" color-interpolation-filters="sRGB"> <feFlood flood-opacity="0" result="BackgroundImageFix"></feFlood> <feBlend mode="normal" in="SourceGraphic" in2="BackgroundImageFix" result="shape"></feBlend> <feGaussianBlur stdDeviation="159.145" result="effect1_foregroundBlur_152_19"></feGaussianBlur> </filter> <filter id="filter5_f_152_19" x="300.156" y="440.719" width="892.705" height="620.071" filterUnits="userSpaceOnUse" color-interpolation-filters="sRGB"> <feFlood flood-opacity="0" result="BackgroundImageFix"></feFlood> <feBlend mode="normal" in="SourceGraphic" in2="BackgroundImageFix" result="shape"></feBlend> <feGaussianBlur stdDeviation="75.6428" result="effect1_foregroundBlur_152_19"></feGaussianBlur> </filter> <filter id="filter6_f_152_19" x="1732.99" y="54.268" width="1067.3" height="879.825" filterUnits="userSpaceOnUse" color-interpolation-filters="sRGB"> <feFlood flood-opacity="0" result="BackgroundImageFix"></feFlood> <feBlend mode="normal" in="SourceGraphic" in2="BackgroundImageFix" result="shape"></feBlend> <feGaussianBlur stdDeviation="158.653" result="effect1_foregroundBlur_152_19"></feGaussianBlur> </filter> <filter id="filter7_f_152_19" x="1373.48" y="200.023" width="1085.51" height="858.081" filterUnits="userSpaceOnUse" color-interpolation-filters="sRGB"> <feFlood flood-opacity="0" result="BackgroundImageFix"></feFlood> <feBlend mode="normal" in="SourceGraphic" in2="BackgroundImageFix" result="shape"></feBlend> <feGaussianBlur stdDeviation="159.145" result="effect1_foregroundBlur_152_19"></feGaussianBlur> </filter> <filter id="filter8_f_152_19" x="1785.15" y="0.0160828" width="991.564" height="879.715" filterUnits="userSpaceOnUse" color-interpolation-filters="sRGB"> <feFlood flood-opacity="0" result="BackgroundImageFix"></feFlood> <feBlend mode="normal" in="SourceGraphic" in2="BackgroundImageFix" result="shape"></feBlend> <feGaussianBlur stdDeviation="158.653" result="effect1_foregroundBlur_152_19"></feGaussianBlur> </filter> <filter id="filter9_f_152_19" x="1417.78" y="65.5157" width="1085.51" height="858.081" filterUnits="userSpaceOnUse" color-interpolation-filters="sRGB"> <feFlood flood-opacity="0" result="BackgroundImageFix"></feFlood> <feBlend mode="normal" in="SourceGraphic" in2="BackgroundImageFix" result="shape"></feBlend> <feGaussianBlur stdDeviation="159.145" result="effect1_foregroundBlur_152_19"></feGaussianBlur> </filter> <filter id="filter10_f_152_19" x="1626.07" y="63.333" width="1031.08" height="887.069" filterUnits="userSpaceOnUse" color-interpolation-filters="sRGB"> <feFlood flood-opacity="0" result="BackgroundImageFix"></feFlood> <feBlend mode="normal" in="SourceGraphic" in2="BackgroundImageFix" result="shape"></feBlend> <feGaussianBlur stdDeviation="158.653" result="effect1_foregroundBlur_152_19"></feGaussianBlur> </filter> <filter id="filter11_f_152_19" x="1595.62" y="16.2725" width="1085.51" height="858.081" filterUnits="userSpaceOnUse" color-interpolation-filters="sRGB"> <feFlood flood-opacity="0" result="BackgroundImageFix"></feFlood> <feBlend mode="normal" in="SourceGraphic" in2="BackgroundImageFix" result="shape"></feBlend> <feGaussianBlur stdDeviation="159.145" result="effect1_foregroundBlur_152_19"></feGaussianBlur> </filter> <filter id="filter12_f_152_19" x="1483.08" y="125.105" width="777.877" height="558.292" filterUnits="userSpaceOnUse" color-interpolation-filters="sRGB"> <feFlood flood-opacity="0" result="BackgroundImageFix"></feFlood> <feBlend mode="normal" in="SourceGraphic" in2="BackgroundImageFix" result="shape"></feBlend> <feGaussianBlur stdDeviation="75.6428" result="effect1_foregroundBlur_152_19"></feGaussianBlur> </filter> </defs> </svg> 